<svg width="171" height="74" viewBox="0 0 171 74" fill="none" xmlns="http://www.w3.org/2000/svg">
<g clip-path="url(#clip0_2076_51437)">
<path d="M0.300998 33.208C-0.456457 30.9306 0.239648 28.3421 2.11901 26.4453L25.6481 2.18359C28.1118 4.32627 30.5755 6.46834 33.0398 8.61102C24.0761 15.8419 15.113 23.0733 6.14925 30.3042C6.08911 30.3646 5.94698 30.5066 6.02837 30.7506C6.10977 30.9947 6.29807 30.9947 6.37885 30.9947L0.300998 33.208Z" fill="url(#paint0_linear_2076_51437)"/>
<path d="M35.3044 8.83546L35.2455 8.93393L21.5633 30.995H14.9297C17.4037 22.5173 19.8771 14.0396 22.3512 5.56195C22.5534 5.34508 24.663 3.08702 26.0491 1.8843C26.3365 1.63542 26.7045 1.33398 27.2215 1.03194C27.7791 0.706942 28.279 0.515448 28.6197 0.404297C30.8484 3.21448 33.0764 6.02467 35.305 8.83486L35.3044 8.83546Z" fill="url(#paint1_linear_2076_51437)"/>
<path d="M18.3793 68.0791C18.4486 68.0791 18.5925 68.0791 18.8385 67.8326L38.9375 47.7052C38.9976 47.6448 39.1392 47.5028 39.0584 47.2588L44.7858 44.8008C45.5462 47.0872 44.841 49.6872 42.9459 51.5858L22.8469 71.7132C21.3739 73.1884 19.5219 74.0009 17.6328 74.0009L18.3799 68.0791H18.3793Z" fill="url(#paint2_linear_2076_51437)"/>
<path d="M32.8901 33.4093C32.0659 31.8966 30.4817 30.9941 28.6522 30.9941H6.37803C6.29724 30.9941 0.300781 33.2087 0.300781 33.2087C1.06127 35.4952 3.10403 36.916 5.6309 36.916H27.1591L24.8412 41.0944H31.3133L32.7334 38.5337L32.7474 38.5083C33.661 36.8278 33.7138 34.9219 32.8895 33.4099L32.8901 33.4093Z" fill="url(#paint3_linear_2076_51437)"/>
<path d="M22.5582 47.0137L12.6505 64.8752L12.6365 64.9005C11.5104 66.9725 11.4302 69.1992 12.4173 71.0102C13.4219 72.8539 15.4204 73.9992 17.632 73.9992L18.3791 68.0774C18.1501 68.0774 17.8944 67.9246 17.7838 67.7222C17.7273 67.6189 17.6812 67.483 17.844 67.1797L29.0296 47.0137H22.5576H22.5582Z" fill="url(#paint4_linear_2076_51437)"/>
<path d="M39.4559 41.0925H16.301L18.8929 36.9141H12.2592L10.737 39.3684L10.6781 39.4669C9.72021 41.133 9.62849 43.0407 10.4333 44.5708C11.2382 46.1003 12.8138 47.0143 14.6482 47.0143H38.7088C38.789 47.0143 38.9779 47.0143 39.0587 47.2584L44.786 44.8003C44.0255 42.5139 41.9828 41.0931 39.4559 41.0931V41.0925Z" fill="url(#paint5_linear_2076_51437)"/>
<path d="M25.6475 2.18376C27.053 0.775641 28.8206 0 30.6235 0C32.7664 0 34.6865 1.11997 35.6347 2.92315C36.5665 4.69432 36.4462 6.84908 35.3042 8.83469L30.2329 6.14593C30.1624 6.01182 29.9917 5.92181 29.8763 5.92181C29.8575 5.92181 29.801 5.92181 29.668 6.05169L25.6475 2.18376Z" fill="url(#paint6_linear_2076_51437)"/>
<path d="M56.3883 23.75H66.5365C68.2506 23.75 69.6167 23.8382 70.6354 24.0134C71.6534 24.1892 72.4655 24.467 73.0705 24.8482C74.0788 25.4898 74.8424 26.33 75.3617 27.3678C75.8811 28.4057 76.1404 29.6017 76.1404 30.9549C76.1404 32.308 75.9284 33.4141 75.5051 34.3619C75.0817 35.3097 74.436 36.0944 73.5692 36.716C72.8433 37.2271 72.0087 37.5907 71.066 37.8064C70.1233 38.022 68.6789 38.1296 66.7327 38.1296H61.0612V45.8606H56.3877V23.75H56.3883ZM66.4764 27.691H61.0618V34.2187H66.7637C68.1753 34.2187 69.2237 33.9505 69.9095 33.4141C70.5953 32.8777 70.9379 32.0579 70.9379 30.9549C70.9379 29.7721 70.6026 28.9318 69.932 28.4353C69.2614 27.9387 68.1097 27.6904 66.4764 27.6904V27.691Z" fill="url(#paint7_linear_2076_51437)"/>
<path d="M88.5368 27.6004C86.8445 27.6004 85.5683 28.0215 84.707 28.8642C83.8457 29.7062 83.3701 30.9954 83.2796 32.7297L96.211 32.7448V36.5952H83.2492C83.2589 38.5204 83.6695 39.9044 84.4804 40.7464C85.2907 41.5885 86.6435 42.0102 88.5368 42.0102H96.211V45.8606H88.3102C86.5669 45.8606 85.196 45.7126 84.1986 45.4166C83.2006 45.1212 82.264 44.6222 81.3868 43.9203C80.2479 43.0178 79.3939 41.8422 78.8247 40.3931C78.255 38.9439 77.9707 37.212 77.9707 35.1961C77.9707 31.2853 78.8223 28.4002 80.5249 26.5403C82.2281 24.6803 84.868 23.75 88.4457 23.75H96.2103V27.6004H88.5368Z" fill="url(#paint8_linear_2076_51437)"/>
<path d="M100.31 23.75H111.819C114.501 23.75 116.467 24.2864 117.718 25.3593C118.968 26.4321 119.593 28.1121 119.593 30.3979C119.593 32.0924 119.208 33.4763 118.436 34.5492C117.665 35.622 116.553 36.3143 115.101 36.6248L120.652 45.86H115.389L110.489 37.166H104.984V45.86H100.31L100.31 23.75ZM110.715 27.691H104.983V33.2564H110.715C112.268 33.2564 113.347 33.0456 113.952 32.6246C114.557 32.2035 114.859 31.4816 114.859 30.4589C114.859 29.4362 114.564 28.7319 113.974 28.3156C113.384 27.8994 112.298 27.691 110.715 27.691Z" fill="url(#paint9_linear_2076_51437)"/>
<path d="M123.374 35.6927C123.374 32.8753 123.545 30.8069 123.889 29.4882C124.231 28.1695 124.816 27.0942 125.643 26.2618C126.489 25.4094 127.619 24.7781 129.03 24.3668C130.442 23.956 132.201 23.75 134.309 23.75H141.433V27.6004H133.916C131.889 27.6004 130.415 28.0239 129.492 28.8714C128.569 29.7189 128.093 31.0848 128.063 32.9701L141.433 32.9852V36.8054H128.063V45.86H123.374V35.6921V35.6927Z" fill="url(#paint10_linear_2076_51437)"/>
<path d="M149.463 45.86H144.578V23.75H149.463V45.8606V45.86Z" fill="url(#paint11_linear_2076_51437)"/>
<path d="M158.947 27.6297H151.763V23.7793H171.001V27.6297H163.787V45.8597H158.947V27.6297Z" fill="url(#paint12_linear_2076_51437)"/>
<path d="M56.8369 51.1273C57.4049 51.0398 58.1307 50.9648 58.9495 50.9648C60.1376 50.9648 60.9959 51.2397 61.5244 51.7151C61.9733 52.115 62.2375 52.6653 62.2375 53.3534C62.2375 54.091 62 54.6661 61.5511 55.0913C60.9437 55.6918 59.9269 56.0041 58.7521 56.0041C58.2899 56.0041 57.8543 55.9914 57.4844 55.8791V59.4673H56.8375V51.1273H56.8369ZM57.4838 55.3408C57.8537 55.4532 58.3287 55.4906 58.8305 55.4906C60.5999 55.4906 61.59 54.7277 61.59 53.4277C61.59 51.9773 60.3751 51.4771 58.9362 51.4771C58.2625 51.4771 57.748 51.5399 57.4838 51.5895V55.3408Z" fill="black"/>
<path d="M63.7826 56.4673C63.7826 58.2179 64.9579 59.0932 66.4625 59.0932C67.5583 59.0932 68.0868 58.8933 68.4956 58.7181L68.6675 59.2056C68.4427 59.3059 67.7302 59.6182 66.3963 59.6182C64.4289 59.6182 63.1484 58.355 63.1484 56.6171C63.1484 54.5789 64.5218 53.3164 66.3174 53.3164C68.6675 53.3164 69.0769 55.2918 69.0769 56.0922C69.0769 56.2794 69.0769 56.367 69.0508 56.4673H63.7826ZM68.4038 55.9798C68.4172 55.3546 68.1396 53.8166 66.2384 53.8166C64.6275 53.8166 63.9545 55.067 63.8221 55.9798H68.4032H68.4038Z" fill="black"/>
<path d="M70.8321 55.4041C70.8321 54.7541 70.8188 54.1162 70.7793 53.4662H71.3734L71.3995 54.7668H71.439C71.756 53.9289 72.4424 53.3164 73.3797 53.3164C73.4854 53.3164 73.5911 53.3291 73.6834 53.3539V53.9163C73.5643 53.8915 73.4586 53.8915 73.3135 53.8915C72.4291 53.8915 71.7554 54.5916 71.544 55.6294C71.5046 55.8046 71.4778 56.0173 71.4778 56.2172V59.4684H70.8309V55.4047L70.8321 55.4041Z" fill="black"/>
<path d="M75.5187 59.4675V53.9535H74.5547V53.466H75.5187V53.1784C75.5187 52.1533 75.7428 51.3904 76.2846 50.9029C76.6807 50.5531 77.2091 50.3652 77.7898 50.3652C78.2387 50.3652 78.6347 50.4776 78.8328 50.5906L78.6214 51.066C78.4234 50.9657 78.1591 50.8781 77.737 50.8781C76.4432 50.8781 76.1656 51.9534 76.1656 53.1664V53.4666H78.0273V53.9541H76.1656V59.4681H75.5187V59.4675Z" fill="black"/>
<path d="M85.0915 56.391C85.0915 58.6418 83.2431 59.6168 81.6851 59.6168C79.7972 59.6168 78.4238 58.3042 78.4238 56.5282C78.4238 54.5274 80.008 53.3145 81.7774 53.3145C83.8104 53.3145 85.0915 54.6773 85.0915 56.3904V56.391ZM79.0707 56.4913C79.0707 58.167 80.3512 59.1173 81.7246 59.1173C83.0979 59.1173 84.4446 58.1544 84.4446 56.4291C84.4446 55.291 83.6392 53.8158 81.7774 53.8158C79.9157 53.8158 79.0707 55.0911 79.0707 56.4913Z" fill="black"/>
<path d="M86.8204 55.4041C86.8204 54.7541 86.8071 54.1162 86.7676 53.4662H87.3616L87.3878 54.7668H87.4272C87.7443 53.9289 88.4307 53.3164 89.368 53.3164C89.4736 53.3164 89.5793 53.3291 89.6717 53.3539V53.9163C89.5526 53.8915 89.4469 53.8915 89.3017 53.8915C88.4173 53.8915 87.7437 54.5916 87.5323 55.6294C87.4928 55.8046 87.4661 56.0173 87.4661 56.2172V59.4684H86.8192V55.4047L86.8204 55.4041Z" fill="black"/>
<path d="M91.1779 54.9166C91.1779 54.4291 91.1645 53.9537 91.125 53.4662H91.7324L91.7853 54.6291H91.8114C92.2736 53.8788 92.9339 53.3164 94.0953 53.3164C95.0988 53.3164 95.8119 53.9791 96.0889 54.742H96.115C96.2996 54.3796 96.5377 54.1041 96.7752 53.9042C97.2375 53.529 97.7125 53.3164 98.5046 53.3164C99.0986 53.3164 100.776 53.6166 100.776 56.1169V59.4678H100.129V56.129C100.129 54.6164 99.4424 53.8407 98.2804 53.8407C97.396 53.8407 96.709 54.4412 96.432 55.0537C96.3658 55.2162 96.3002 55.4162 96.3002 55.6415V59.4678H95.6533V55.8167C95.6533 54.6412 94.9797 53.8414 93.9106 53.8414C92.9467 53.8414 92.2208 54.5662 91.9432 55.2295C91.877 55.392 91.8241 55.6047 91.8241 55.8173V59.4684H91.1772V54.9172L91.1779 54.9166Z" fill="black"/>
<path d="M106.862 59.4684L106.757 58.5429H106.731C106.401 59.0056 105.595 59.6182 104.433 59.6182C102.994 59.6182 102.413 58.6927 102.413 57.9678C102.413 56.605 103.746 55.717 106.704 55.7545V55.6167C106.704 55.1667 106.598 53.816 104.908 53.8287C104.275 53.8287 103.615 53.9785 103.086 54.3288L102.875 53.8915C103.574 53.4535 104.353 53.3164 104.961 53.3164C107.113 53.3164 107.35 54.8919 107.35 55.8421V58.018C107.35 58.5055 107.376 58.9809 107.456 59.4684H106.862H106.862ZM106.704 56.2673C105.027 56.2172 103.099 56.4673 103.099 57.8555C103.099 58.706 103.746 59.1186 104.486 59.1186C105.713 59.1186 106.373 58.4312 106.624 57.8935C106.677 57.7685 106.703 57.6434 106.703 57.5432V56.2679L106.704 56.2673Z" fill="black"/>
<path d="M109.568 54.9166C109.568 54.4291 109.555 53.9537 109.516 53.4662H110.123L110.176 54.6665H110.202C110.585 53.9289 111.482 53.3164 112.644 53.3164C113.225 53.3164 115.114 53.5665 115.114 56.0547V59.4684H114.467V56.0547C114.467 54.8792 113.926 53.8414 112.473 53.8414C111.456 53.8414 110.611 54.504 110.321 55.267C110.268 55.4047 110.215 55.6167 110.215 55.8046V59.4684H109.568V54.9172V54.9166Z" fill="black"/>
<path d="M122.257 59.1802C121.98 59.3053 121.214 59.6182 120.131 59.6182C118.111 59.6182 116.777 58.2928 116.777 56.5549C116.777 54.5542 118.349 53.3164 120.382 53.3164C121.319 53.3164 122.046 53.5665 122.309 53.7417L122.072 54.2419C121.702 54.0419 121.147 53.842 120.329 53.842C118.441 53.842 117.424 55.0175 117.424 56.48C117.424 58.0427 118.612 59.0932 120.223 59.0932C121.134 59.0932 121.702 58.8431 122.072 58.6933L122.256 59.1808L122.257 59.1802Z" fill="black"/>
<path d="M123.986 56.4673C123.986 58.2179 125.161 59.0932 126.666 59.0932C127.761 59.0932 128.29 58.8933 128.699 58.7181L128.871 59.2056C128.646 59.3059 127.933 59.6182 126.599 59.6182C124.632 59.6182 123.352 58.355 123.352 56.6171C123.352 54.5789 124.725 53.3164 126.52 53.3164C128.871 53.3164 129.28 55.2918 129.28 56.0922C129.28 56.2794 129.28 56.367 129.254 56.4673H123.986ZM128.607 55.9798C128.62 55.3546 128.343 53.8166 126.442 53.8166C124.831 53.8166 124.158 55.067 124.025 55.9798H128.606H128.607Z" fill="black"/>
<path d="M134.852 51.0391V59.4666H134.205V51.0391H134.852Z" fill="black"/>
<path d="M139.063 51.5519H135.749V51.0391H143.024V51.5519H139.71V59.4666H139.063V51.5519Z" fill="black"/>
<path d="M143.011 59.0428C143.011 58.7052 143.249 58.4551 143.579 58.4551C143.91 58.4551 144.134 58.7052 144.134 59.0428C144.134 59.3431 143.909 59.6179 143.566 59.6179C143.223 59.6179 142.998 59.3431 143.011 59.0428Z" fill="black"/>
</g>
<defs>
<linearGradient id="paint0_linear_2076_51437" x1="34.7375" y1="0.133946" x2="9.08137" y2="29.1" gradientUnits="userSpaceOnUse">
<stop stop-color="#00D7BE"/>
<stop offset="0.2" stop-color="#42D68C"/>
<stop offset="0.41" stop-color="#84D55B"/>
<stop offset="0.61" stop-color="#B9D433"/>
<stop offset="0.78" stop-color="#DFD417"/>
<stop offset="0.91" stop-color="#F6D406"/>
<stop offset="1" stop-color="#FFD400"/>
</linearGradient>
<linearGradient id="paint1_linear_2076_51437" x1="31.7012" y1="2.54577" x2="20.9323" y2="28.3275" gradientUnits="userSpaceOnUse">
<stop stop-color="#00D7BE"/>
<stop offset="1" stop-color="#1F93FF"/>
</linearGradient>
<linearGradient id="paint2_linear_2076_51437" x1="48.6447" y1="47.3132" x2="29.3462" y2="70.7328" gradientUnits="userSpaceOnUse">
<stop stop-color="#FF3DC8"/>
<stop offset="1" stop-color="#FF9736"/>
</linearGradient>
<linearGradient id="paint3_linear_2076_51437" x1="19.228" y1="29.7171" x2="34.05" y2="63.0846" gradientUnits="userSpaceOnUse">
<stop stop-color="#FFD500"/>
<stop offset="1" stop-color="#EC6047"/>
</linearGradient>
<linearGradient id="paint4_linear_2076_51437" x1="15.6718" y1="31.2967" x2="30.4938" y2="64.6642" gradientUnits="userSpaceOnUse">
<stop stop-color="#FFD500"/>
<stop offset="1" stop-color="#FF9736"/>
</linearGradient>
<linearGradient id="paint5_linear_2076_51437" x1="21.5352" y1="40.9306" x2="44.5134" y2="47.4356" gradientUnits="userSpaceOnUse">
<stop stop-color="#1F93FF"/>
<stop offset="1" stop-color="#FF3DC8"/>
</linearGradient>
<linearGradient id="paint6_linear_2076_51437" x1="35.0139" y1="1.21722" x2="9.71753" y2="29.7778" gradientUnits="userSpaceOnUse">
<stop stop-color="#00D7BE"/>
<stop offset="0.2" stop-color="#42D68C"/>
<stop offset="0.41" stop-color="#84D55B"/>
<stop offset="0.61" stop-color="#B9D433"/>
<stop offset="0.78" stop-color="#DFD417"/>
<stop offset="0.91" stop-color="#F6D406"/>
<stop offset="1" stop-color="#FFD400"/>
</linearGradient>
<linearGradient id="paint7_linear_2076_51437" x1="56.3877" y1="34.8056" x2="76.1398" y2="34.8056" gradientUnits="userSpaceOnUse">
<stop stop-color="#111111"/>
<stop offset="1"/>
</linearGradient>
<linearGradient id="paint8_linear_2076_51437" x1="77.9707" y1="34.8056" x2="96.2104" y2="34.8056" gradientUnits="userSpaceOnUse">
<stop stop-color="#111111"/>
<stop offset="1"/>
</linearGradient>
<linearGradient id="paint9_linear_2076_51437" x1="100.31" y1="34.8053" x2="120.652" y2="34.8053" gradientUnits="userSpaceOnUse">
<stop stop-color="#111111"/>
<stop offset="1"/>
</linearGradient>
<linearGradient id="paint10_linear_2076_51437" x1="123.374" y1="34.8053" x2="141.432" y2="34.8053" gradientUnits="userSpaceOnUse">
<stop stop-color="#111111"/>
<stop offset="1"/>
</linearGradient>
<linearGradient id="paint11_linear_2076_51437" x1="144.578" y1="34.8056" x2="149.463" y2="34.8056" gradientUnits="userSpaceOnUse">
<stop stop-color="#111111"/>
<stop offset="1"/>
</linearGradient>
<linearGradient id="paint12_linear_2076_51437" x1="151.763" y1="34.8198" x2="171" y2="34.8198" gradientUnits="userSpaceOnUse">
<stop stop-color="#111111"/>
<stop offset="1"/>
</linearGradient>
<clipPath id="clip0_2076_51437">
<rect width="171" height="74" fill="white"/>
</clipPath>
</defs>
</svg>
